<svg xmlns="http://www.w3.org/2000/svg" xmlns:xlink="http://www.w3.org/1999/xlink" id="Layer_1" x="0px" y="0px" viewBox="0 0 256 256" xml:space="preserve"><g>	<g>		<g>			<path fill="#E6E7E8" d="M102.108,79.408V52.802c0-12.793,8.956-24.252,21.584-26.3c16.174-2.623,30.2,9.852,30.2,25.542v27.363    h14.574V52.045c0-23.544-20.205-42.453-44.185-40.301c-21.009,1.885-36.748,20.199-36.748,41.293v26.372H102.108z"></path>		</g>		<g>			<g>				<path fill="#D1D3D4" d="M118.692,26.502c-12.628,2.048-21.584,13.507-21.584,26.3v26.606h5V52.802     c0-12.793,8.956-24.252,21.584-26.3c0.597-0.097,1.19-0.167,1.781-0.223C123.279,26.07,121.009,26.127,118.692,26.502z"></path>			</g>			<g>				<path fill="#D1D3D4" d="M125.549,11.664c21.131,1.321,37.918,18.922,37.918,40.381v27.363h5V52.045     C168.467,28.918,148.968,10.277,125.549,11.664z"></path>			</g>		</g>		<g>			<g>				<path fill="#377DE2" d="M188,158.032c0,8.284-6.716,15-15,15l-90,0c-8.284,0-15-6.716-15-15V94.408c0-8.284,6.716-15,15-15h90     c8.284,0,15,6.716,15,15V158.032z"></path>			</g>		</g>		<g>			<path fill="#2266D3" d="M180.797,81.612c1.389,2.274,2.203,4.937,2.203,7.797v63.624c0,8.284-6.716,15-15,15l-90,0    c-2.86,0-5.523-0.814-7.797-2.203c2.634,4.314,7.372,7.203,12.797,7.203l90,0c8.284,0,15-6.716,15-15V94.408    C188,88.984,185.111,84.246,180.797,81.612z"></path>		</g>		<g>			<g>				<path fill="#5E9CF7" d="M188,108.733v12.772h-15.87c-3.527,0-6.386-2.859-6.386-6.386v0c0-3.527,2.859-6.386,6.386-6.386H188z"></path>			</g>		</g>		<g>			<g>				<path fill="#5E9CF7" d="M188,130.935v12.772l-15.87,0c-3.527,0-6.386-2.859-6.386-6.386v0c0-3.527,2.859-6.386,6.386-6.386H188z     "></path>			</g>		</g>		<g>			<g>				<path fill="#5E9CF7" d="M68,108.733v12.772h15.87c3.527,0,6.386-2.859,6.386-6.386v0c0-3.527-2.859-6.386-6.386-6.386H68z"></path>			</g>		</g>		<g>			<g>				<path fill="#5E9CF7" d="M68,130.935v12.772l15.87,0c3.527,0,6.386-2.859,6.386-6.386v0c0-3.527-2.859-6.386-6.386-6.386H68z"></path>			</g>		</g>		<g>			<path fill="#414042" d="M140.5,116.706c0-6.904-5.596-12.5-12.5-12.5c-6.904,0-12.5,5.596-12.5,12.5    c0,4.962,2.899,9.237,7.09,11.255v14.864c0,2.988,2.422,5.41,5.41,5.41c2.988,0,5.41-2.422,5.41-5.41v-14.864    C137.601,125.942,140.5,121.668,140.5,116.706z"></path>		</g>	</g>	<g>		<path fill="#FFA91A" d="M234.012,244.424H21.988c-5.523,0-10-4.477-10-10v-38c0-5.523,4.477-10,10-10h212.024   c5.523,0,10,4.477,10,10v38C244.012,239.947,239.535,244.424,234.012,244.424z"></path>	</g>	<g>		<path fill="#FFC91D" d="M88,194.424h-1c-1.104,0-2-0.896-2-2s0.896-2,2-2h1c1.104,0,2,0.896,2,2S89.104,194.424,88,194.424z    M79,194.424H30c-1.104,0-2-0.896-2-2s0.896-2,2-2h49c1.104,0,2,0.896,2,2S80.104,194.424,79,194.424z"></path>	</g>	<g>		<path fill="#F79219" d="M234.012,186.424v38c0,5.523-4.477,10-10,10H11.988c0,5.523,4.477,10,10,10h212.024   c5.523,0,10-4.477,10-10v-38C244.012,190.901,239.535,186.424,234.012,186.424z"></path>	</g>	<g>		<path fill="#EF7816" d="M238.122,187.314c0.567,1.255,0.89,2.643,0.89,4.11v38c0,5.523-4.477,10-10,10H16.988   c-1.466,0-2.855-0.323-4.11-0.89c1.569,3.471,5.053,5.89,9.11,5.89h212.024c5.523,0,10-4.477,10-10v-38   C244.012,192.368,241.593,188.883,238.122,187.314z"></path>	</g>	<g>		<path fill="#FFFFFF" d="M61,213.424h-8.172l5.778-5.778c0.781-0.781,0.781-2.047,0-2.828c-0.78-0.781-2.048-0.781-2.828,0   L50,210.596v-8.172c0-1.104-0.896-2-2-2s-2,0.896-2,2v8.172l-5.778-5.778c-0.78-0.781-2.048-0.781-2.828,0   c-0.781,0.781-0.781,2.047,0,2.828l5.778,5.778H35c-1.104,0-2,0.896-2,2s0.896,2,2,2h8.172l-5.778,5.778   c-0.781,0.781-0.781,2.047,0,2.828c0.39,0.391,0.902,0.586,1.414,0.586s1.024-0.195,1.414-0.586L46,220.252v8.172   c0,1.104,0.896,2,2,2s2-0.896,2-2v-8.172l5.778,5.778c0.39,0.391,0.902,0.586,1.414,0.586s1.024-0.195,1.414-0.586   c0.781-0.781,0.781-2.047,0-2.828l-5.778-5.778H61c1.104,0,2-0.896,2-2S62.104,213.424,61,213.424z"></path>		<path fill="#FFFFFF" d="M101,213.424h-8.172l5.778-5.778c0.781-0.781,0.781-2.047,0-2.828c-0.78-0.781-2.048-0.781-2.828,0   L90,210.596v-8.172c0-1.104-0.896-2-2-2s-2,0.896-2,2v8.172l-5.778-5.778c-0.78-0.781-2.048-0.781-2.828,0   c-0.781,0.781-0.781,2.047,0,2.828l5.778,5.778H75c-1.104,0-2,0.896-2,2s0.896,2,2,2h8.172l-5.778,5.778   c-0.781,0.781-0.781,2.047,0,2.828c0.39,0.391,0.902,0.586,1.414,0.586s1.024-0.195,1.414-0.586L86,220.252v8.172   c0,1.104,0.896,2,2,2s2-0.896,2-2v-8.172l5.778,5.778c0.39,0.391,0.902,0.586,1.414,0.586s1.024-0.195,1.414-0.586   c0.781-0.781,0.781-2.047,0-2.828l-5.778-5.778H101c1.104,0,2-0.896,2-2S102.104,213.424,101,213.424z"></path>		<path fill="#FFFFFF" d="M141,213.424h-8.172l5.778-5.778c0.781-0.781,0.781-2.047,0-2.828c-0.78-0.781-2.048-0.781-2.828,0   L130,210.596v-8.172c0-1.104-0.896-2-2-2s-2,0.896-2,2v8.172l-5.778-5.778c-0.78-0.781-2.048-0.781-2.828,0   c-0.781,0.781-0.781,2.047,0,2.828l5.778,5.778H115c-1.104,0-2,0.896-2,2s0.896,2,2,2h8.172l-5.778,5.778   c-0.781,0.781-0.781,2.047,0,2.828c0.39,0.391,0.902,0.586,1.414,0.586s1.024-0.195,1.414-0.586l5.778-5.778v8.172   c0,1.104,0.896,2,2,2s2-0.896,2-2v-8.172l5.778,5.778c0.39,0.391,0.902,0.586,1.414,0.586s1.024-0.195,1.414-0.586   c0.781-0.781,0.781-2.047,0-2.828l-5.778-5.778H141c1.104,0,2-0.896,2-2S142.104,213.424,141,213.424z"></path>		<path fill="#FFFFFF" d="M181,213.424h-8.172l5.778-5.778c0.781-0.781,0.781-2.047,0-2.828c-0.78-0.781-2.048-0.781-2.828,0   L170,210.596v-8.172c0-1.104-0.896-2-2-2s-2,0.896-2,2v8.172l-5.778-5.778c-0.78-0.781-2.048-0.781-2.828,0   c-0.781,0.781-0.781,2.047,0,2.828l5.778,5.778H155c-1.104,0-2,0.896-2,2s0.896,2,2,2h8.172l-5.778,5.778   c-0.781,0.781-0.781,2.047,0,2.828c0.39,0.391,0.902,0.586,1.414,0.586s1.024-0.195,1.414-0.586l5.778-5.778v8.172   c0,1.104,0.896,2,2,2s2-0.896,2-2v-8.172l5.778,5.778c0.39,0.391,0.902,0.586,1.414,0.586s1.024-0.195,1.414-0.586   c0.781-0.781,0.781-2.047,0-2.828l-5.778-5.778H181c1.104,0,2-0.896,2-2S182.104,213.424,181,213.424z"></path>		<path fill="#FFFFFF" d="M221,213.424h-8.172l5.778-5.778c0.781-0.781,0.781-2.047,0-2.828c-0.78-0.781-2.048-0.781-2.828,0   L210,210.596v-8.172c0-1.104-0.896-2-2-2s-2,0.896-2,2v8.172l-5.778-5.778c-0.78-0.781-2.048-0.781-2.828,0   c-0.781,0.781-0.781,2.047,0,2.828l5.778,5.778H195c-1.104,0-2,0.896-2,2s0.896,2,2,2h8.172l-5.778,5.778   c-0.781,0.781-0.781,2.047,0,2.828c0.39,0.391,0.902,0.586,1.414,0.586s1.024-0.195,1.414-0.586l5.778-5.778v8.172   c0,1.104,0.896,2,2,2s2-0.896,2-2v-8.172l5.778,5.778c0.39,0.391,0.902,0.586,1.414,0.586s1.024-0.195,1.414-0.586   c0.781-0.781,0.781-2.047,0-2.828l-5.778-5.778H221c1.104,0,2-0.896,2-2S222.104,213.424,221,213.424z"></path>	</g></g></svg>