<svg xmlns="http://www.w3.org/2000/svg" xmlns:xlink="http://www.w3.org/1999/xlink" id="Layer_1" x="0px" y="0px" viewBox="0 0 256 256" xml:space="preserve"><g>	<g>		<path fill="#478CF7" d="M206.873,44.401c-28.473-1.742-46.067-4.752-75.84-16.987c-1.94-0.797-4.127-0.797-6.067,0   C95.194,39.649,77.6,42.659,49.127,44.401c-2.022,0.124-3.649,1.74-3.762,3.763c-5.589,100.019,26.639,145.147,78.16,179.661   c2.706,1.813,6.244,1.813,8.95,0c51.521-34.514,83.749-79.642,78.16-179.661C210.522,46.141,208.895,44.525,206.873,44.401z"></path>	</g>	<g>		<g>			<path fill="#5E9CF7" d="M82.15,184.28c-0.64,0-1.22-0.29-1.6-0.79c-0.01-0.01-0.01-0.01-0.01-0.02    c-0.32-0.42-0.45-0.94-0.38-1.47c0.08-0.53,0.35-0.99,0.78-1.31c0.86-0.65,2.16-0.47,2.8,0.39c0.66,0.88,0.49,2.13-0.39,2.8    C83,184.14,82.58,184.28,82.15,184.28z M77.52,177.76c-0.68,0-1.3-0.33-1.67-0.89c-3.37-5.06-6.48-10.47-9.23-16.07    c-5.98-12.18-10.5-25.96-13.45-40.98c-2.94-15-4.43-31.85-4.43-50.1c0-6.27,0.18-12.85,0.52-19.54c0.05-1.02,0.86-1.83,1.87-1.9    c27.5-1.77,44.91-4.67,75.36-17.17c0.94-0.39,2.08-0.39,3.02,0c14.36,5.9,25.84,9.68,37.23,12.25c1.66,0.38,3.41,0.75,5.19,1.09    c1.08,0.21,1.79,1.26,1.58,2.35c-0.21,1.06-1.27,1.79-2.35,1.58c-1.79-0.35-3.57-0.72-5.31-1.11    c-11.61-2.63-23.28-6.47-37.85-12.45c-14.79,6.08-26.68,9.97-38.57,12.6c-10.48,2.33-21.33,3.74-36.26,4.74    c-0.29,6.01-0.43,11.92-0.43,17.56c0,36.16,5.72,65.38,17.47,89.31c2.68,5.45,5.69,10.71,8.97,15.62c0.29,0.44,0.4,0.98,0.29,1.5    c-0.1,0.53-0.4,0.98-0.85,1.27C78.29,177.64,77.91,177.76,77.52,177.76z"></path>		</g>	</g>	<g>		<path fill="#377DE2" d="M210.635,48.164c-0.113-2.023-1.74-3.64-3.762-3.763c-2.041-0.125-4.02-0.257-5.957-0.398   c4.025,95.946-27.935,139.988-78.441,173.822c-2.706,1.813-6.244,1.813-8.95,0c-9.722-6.513-18.756-13.405-26.98-20.971   c10.696,11.661,23.141,21.7,36.98,30.971c2.706,1.813,6.244,1.813,8.95,0C183.996,193.311,216.224,148.183,210.635,48.164z"></path>	</g>	<g>		<path fill="#2266D3" d="M210.635,48.164c-0.113-2.023-1.74-3.64-3.762-3.763c-0.398-0.024-0.786-0.05-1.18-0.075   c5.273,99.202-26.899,144.12-78.219,178.499c-2.706,1.813-6.244,1.813-8.95,0c-10.808-7.241-20.764-14.952-29.703-23.535   c10.172,10.634,21.836,19.916,34.703,28.535c2.706,1.813,6.244,1.813,8.95,0C183.996,193.311,216.224,148.183,210.635,48.164z"></path>	</g>	<g>		<g>			<path fill="#F1F2F2" d="M119.665,158.299c-3.434,0-6.866-1.31-9.486-3.928l-26.417-26.417c-5.238-5.24-5.238-13.732,0-18.972    c5.24-5.237,13.732-5.237,18.972,0l16.931,16.933l33.601-33.602c5.24-5.237,13.732-5.237,18.972,0    c5.238,5.24,5.238,13.732,0,18.972l-43.086,43.086C126.531,156.989,123.099,158.299,119.665,158.299z"></path>		</g>	</g>	<g>		<g>			<circle fill="#58595B" cx="128" cy="44.003" r="28.818"></circle>		</g>		<g>			<path fill="#414042" d="M142.755,19.248c2.578,4.316,4.064,9.361,4.064,14.755c0,15.916-12.902,28.818-28.818,28.818    c-5.393,0-10.438-1.485-14.755-4.064c5.03,8.422,14.232,14.064,24.755,14.064c15.916,0,28.818-12.902,28.818-28.818    C156.818,33.48,151.176,24.279,142.755,19.248z"></path>		</g>		<g>			<g>				<g>					<g>						<g>							<g>								<g>									<path fill="#F1F2F2" d="M128,28.823c-8.384,0-15.18,6.796-15.18,15.18s6.796,15.18,15.18,15.18s15.18-6.796,15.18-15.18          S136.384,28.823,128,28.823z M128,52.145c-4.497,0-8.142-3.645-8.142-8.142s3.645-8.142,8.142-8.142          s8.142,3.645,8.142,8.142S132.497,52.145,128,52.145z"></path>								</g>								<g>									<g>										<path fill="#FFFFFF" d="M142.786,40.551l3.691-3.256c0.556-0.49,0.689-1.304,0.318-1.946l-1.963-3.4           c-0.37-0.642-1.142-0.933-1.844-0.697l-4.707,1.582C140.483,34.863,142.084,37.534,142.786,40.551z"></path>									</g>									<g>										<path fill="#FFFFFF" d="M109.524,37.295l3.691,3.256c0.702-3.017,2.303-5.688,4.505-7.717l-4.707-1.582           c-0.702-0.236-1.474,0.056-1.844,0.697l-1.963,3.4C108.835,35.991,108.968,36.805,109.524,37.295z"></path>									</g>									<g>										<path fill="#FFFFFF" d="M128,28.823c1.547,0,3.039,0.231,4.445,0.661l-0.956-4.732c-0.147-0.726-0.785-1.249-1.526-1.249           h-3.926c-0.741,0-1.379,0.522-1.526,1.249l-0.956,4.732C124.961,29.054,126.453,28.823,128,28.823z"></path>									</g>									<g>										<path fill="#FFFFFF" d="M146.356,50.503l-3.551-3.133c-0.677,2.991-2.238,5.647-4.393,7.679l4.455,1.498           c0.702,0.236,1.474-0.056,1.844-0.697l1.963-3.4C147.045,51.807,146.912,50.993,146.356,50.503z"></path>									</g>									<g>										<path fill="#FFFFFF" d="M128,59.183c-1.547,0-3.039-0.231-4.445-0.661l0.956,4.732c0.147,0.726,0.785,1.249,1.526,1.249           h3.926c0.741,0,1.38-0.522,1.526-1.249l0.956-4.732C131.039,58.951,129.547,59.183,128,59.183z"></path>									</g>									<g>										<path fill="#FFFFFF" d="M113.195,47.37l-3.551,3.133c-0.556,0.49-0.689,1.304-0.318,1.946l1.963,3.4           c0.37,0.642,1.142,0.934,1.844,0.697l4.455-1.498C115.432,53.016,113.872,50.361,113.195,47.37z"></path>									</g>								</g>							</g>						</g>					</g>				</g>			</g>		</g>	</g>	<g>		<g>			<path fill="#FFA91A" d="M95.823,180.986c-3.745,8.148-10.322,14.725-18.47,18.47c-2.933,1.348-2.933,5.478,0,6.826    c8.148,3.745,14.725,10.322,18.47,18.47c1.348,2.933,5.478,2.933,6.826,0c3.745-8.148,10.322-14.725,18.47-18.47    c2.933-1.348,2.933-5.478,0-6.826c-8.148-3.745-14.725-10.322-18.47-18.47C101.301,178.053,97.171,178.053,95.823,180.986z"></path>		</g>	</g>	<g>		<g>			<path fill="#F79219" d="M121.119,199.456c-2.927-1.346-5.648-3.062-8.111-5.08c-0.344,0.794-0.974,1.486-1.889,1.907    c-8.148,3.745-14.725,10.322-18.47,18.47c-0.421,0.916-1.113,1.545-1.907,1.889c2.018,2.463,3.735,5.184,5.08,8.111    c1.348,2.933,5.478,2.933,6.826,0c3.745-8.148,10.322-14.725,18.47-18.47C124.052,204.934,124.052,200.804,121.119,199.456z"></path>		</g>	</g>	<g>		<g>			<g>				<path fill="#FFA91A" d="M172.461,138.13c-2.405,5.232-6.628,9.455-11.86,11.86c-1.883,0.866-1.883,3.518,0,4.383     c5.232,2.405,9.455,6.628,11.86,11.86c0.866,1.883,3.518,1.883,4.383,0c2.405-5.232,6.628-9.455,11.86-11.86     c1.883-0.866,1.883-3.518,0-4.383c-5.232-2.405-9.455-6.628-11.86-11.86C175.979,136.247,173.327,136.247,172.461,138.13z"></path>			</g>		</g>		<g>			<g>				<path fill="#F79219" d="M188.705,149.99c-1.298-0.596-2.533-1.306-3.694-2.114c-0.184,0.621-0.616,1.18-1.306,1.497     c-5.232,2.405-9.455,6.628-11.86,11.86c-0.317,0.69-0.876,1.122-1.497,1.306c0.808,1.161,1.517,2.396,2.114,3.694     c0.866,1.883,3.518,1.883,4.383,0c2.405-5.232,6.628-9.455,11.86-11.86C190.588,153.508,190.588,150.856,188.705,149.99z"></path>			</g>		</g>		<g>			<g>				<path fill="#FFA91A" d="M72.961,67.159c-2.405,5.232-6.628,9.455-11.86,11.86c-1.883,0.866-1.883,3.518,0,4.383     c5.232,2.405,9.455,6.628,11.86,11.86c0.866,1.883,3.518,1.883,4.383,0c2.405-5.232,6.628-9.455,11.86-11.86     c1.883-0.866,1.883-3.518,0-4.383c-5.232-2.405-9.455-6.628-11.86-11.86C76.479,65.276,73.827,65.276,72.961,67.159z"></path>			</g>		</g>		<g>			<g>				<path fill="#F79219" d="M89.205,79.02c-1.298-0.596-2.533-1.306-3.694-2.114c-0.184,0.621-0.616,1.18-1.306,1.497     c-5.232,2.405-9.455,6.628-11.86,11.86c-0.317,0.69-0.876,1.122-1.497,1.306c0.808,1.161,1.517,2.396,2.114,3.694     c0.866,1.883,3.518,1.883,4.383,0c2.405-5.232,6.628-9.455,11.86-11.86C91.088,82.538,91.088,79.885,89.205,79.02z"></path>			</g>		</g>	</g></g></svg>