<svg xmlns="http://www.w3.org/2000/svg" xmlns:xlink="http://www.w3.org/1999/xlink" id="Layer_1" x="0px" y="0px" viewBox="0 0 256 256" xml:space="preserve"><g>	<g>		<path fill="#76A34F" d="M250.5,58.971c-0.04-6.954-4.473-13.124-11.052-15.381L133.312,7.163c-3.443-1.181-7.18-1.181-10.623,0   L16.552,43.59C9.974,45.847,5.541,52.017,5.5,58.972c-0.013,2.277,0.039,56.337,31.718,106.862   c34.156,54.477,78.071,79.252,82.806,81.814c2.199,1.228,4.701,1.961,7.348,2.062c0.212,0.008,0.423,0.012,0.634,0.012   c2.834,0,5.543-0.732,7.912-2.043c4.415-2.382,48.561-27.135,82.865-81.846C250.461,115.308,250.512,61.248,250.5,58.971z"></path>	</g>	<g>		<path fill="#91B56B" d="M32.986,46.293c-0.831,0-1.607-0.521-1.892-1.351c-0.359-1.045,0.198-2.183,1.242-2.541l63.372-21.749   c1.046-0.359,2.183,0.198,2.541,1.242c0.359,1.045-0.198,2.183-1.242,2.541L33.636,46.185   C33.42,46.258,33.202,46.293,32.986,46.293z M103.925,21.947c-0.831,0-1.607-0.521-1.892-1.351   c-0.359-1.045,0.198-2.183,1.242-2.541l0.545-0.187c1.046-0.358,2.183,0.197,2.541,1.242s-0.198,2.183-1.242,2.541l-0.545,0.187   C104.359,21.912,104.14,21.947,103.925,21.947z"></path>	</g>	<g>		<path fill="#648940" d="M250.5,58.971c-0.04-6.913-4.423-13.046-10.937-15.337c0.594,1.685,0.926,3.481,0.937,5.337   c0.013,2.277-0.038,56.337-31.717,106.863c-34.305,54.711-78.451,79.464-82.865,81.846c-2.369,1.311-5.078,2.043-7.912,2.043   c-0.211,0-0.422-0.004-0.634-0.012c-2.646-0.102-5.149-0.834-7.348-2.063c-2.893-1.566-20.417-11.428-41.403-31.291   c25.183,26.595,48.06,39.481,51.403,41.291c2.199,1.228,4.701,1.961,7.348,2.063c0.212,0.008,0.423,0.012,0.634,0.012   c2.834,0,5.543-0.732,7.912-2.043c4.415-2.382,48.561-27.135,82.865-81.846C250.461,115.308,250.512,61.248,250.5,58.971z"></path>	</g>	<g>		<path fill="#5A7A39" d="M250.5,58.971c-0.033-5.648-2.963-10.777-7.586-13.715c1.629,2.547,2.567,5.547,2.586,8.715   c0.013,2.277-0.038,56.337-31.717,106.863c-34.305,54.711-78.451,79.464-82.865,81.846c-2.369,1.311-5.078,2.043-7.912,2.043   c-0.211,0-0.422-0.004-0.634-0.012c-2.646-0.102-5.149-0.834-7.348-2.063c-3.01-1.629-21.855-12.239-43.96-33.746   c24.203,24.873,45.725,36.995,48.96,38.746c2.199,1.228,4.701,1.961,7.348,2.063c0.212,0.008,0.423,0.012,0.634,0.012   c2.834,0,5.543-0.732,7.912-2.043c4.415-2.382,48.561-27.135,82.865-81.846C250.461,115.308,250.512,61.248,250.5,58.971z"></path>	</g>	<g id="XMLID_3_">		<path fill="#F1F2F2" d="M124.754,32.533L37.798,62.377c-4.303,1.477-7.077,5.667-6.727,10.202   c1.162,15.062,6.033,49.619,26.42,82.134c30.661,48.901,70.461,69.841,70.509,69.866c0.001,0-0.001,0,0,0   c0.048-0.025,39.849-20.965,70.509-69.866c20.387-32.515,25.257-67.072,26.42-82.134c0.35-4.535-2.424-8.726-6.727-10.202   l-86.956-29.844C129.142,31.811,126.858,31.811,124.754,32.533z"></path>	</g>	<g>		<path fill="#D1D3D4" d="M41.373,121c3.832,10.883,9.037,22.42,16.118,33.713c30.661,48.901,70.461,69.841,70.509,69.866   c0.001,0-0.001,0,0,0c0.048-0.025,39.849-20.965,70.509-69.866c7.08-11.293,12.286-22.83,16.118-33.713H41.373z"></path>	</g>	<g>		<path fill="#D1D3D4" d="M128,31.991c-1.097,0-2.194,0.181-3.246,0.542L37.798,62.377c-4.303,1.477-7.077,5.667-6.727,10.202   c1.162,15.062,6.033,49.619,26.42,82.134c30.661,48.901,70.461,69.841,70.509,69.866c0.001,0-0.001,0,0,0V31.991z"></path>	</g>	<g>		<path fill="#F1F2F2" d="M41.373,121c3.832,10.883,9.037,22.421,16.118,33.713c30.661,48.901,70.461,69.841,70.509,69.866   c0.001,0-0.001,0,0,0V121H41.373z"></path>	</g>	<g>		<g>			<circle fill="#91B56B" cx="128" cy="117" r="52.5"></circle>		</g>		<g>			<circle fill="#648940" cx="128" cy="117" r="40.147"></circle>		</g>		<g>			<path fill="#5A7A39" d="M153.774,86.226c5.847,6.974,9.373,15.961,9.373,25.774c0,22.173-17.974,40.147-40.147,40.147    c-9.813,0-18.8-3.525-25.774-9.373c7.365,8.784,18.415,14.373,30.774,14.373c22.173,0,40.147-17.974,40.147-40.147    C168.147,104.641,162.558,93.59,153.774,86.226z"></path>		</g>		<g>			<path fill="#FFFFFF" d="M122.606,137.738c-1.288,0-2.532-0.498-3.467-1.397l-15.675-15.088c-1.99-1.915-2.05-5.081-0.135-7.07    c1.915-1.99,5.081-2.05,7.07-0.135l11.692,11.254l18.893-24.046c1.707-2.171,4.851-2.547,7.021-0.842    c2.172,1.706,2.549,4.85,0.843,7.021l-22.309,28.393c-0.873,1.111-2.176,1.801-3.585,1.898    C122.837,137.734,122.722,137.738,122.606,137.738z"></path>		</g>	</g></g></svg>