<svg xmlns="http://www.w3.org/2000/svg" id="layer" viewBox="0 0 652 201"><defs><style>      .cls-1 {        fill: #fff;        stroke-width: 0px;      }    </style></defs><path class="cls-1" d="M347.2,120.2c0,3.6-1.1,7.3-4.4,10.1s-8.8,5-18.1,5h-18.6v-29.9h17.8c8.3,0,14.2,1.7,17.9,4.3,3.5,2.3,5.5,6.3,5.4,10.5M332.2,84.5c3.5-2.5,5.1-6,5.2-11.3,0-3.6-1.1-6.8-3.7-9.1s-7.1-4-14.3-4h-13.2v28.3h9c7.8,0,13.4-1.4,16.9-3.9M367.3,122.4c0-13.8-9.1-24.3-23.9-28.3,4-2,7.1-4.5,9.4-7.5,3.1-4.1,4.5-9,4.5-14.8,0-7.6-3.2-14.8-8.8-19.8-6-5.4-15.2-8.9-27.6-8.9h-34.4v109.5h40.4c14.4,0,24.5-3.9,31-9.7,5.9-5.1,9.3-12.5,9.3-20.3M405.7,173.7h-161.4V21.7h161.4v151.9ZM146.2,84.5c3.5-2.5,5.1-6,5.2-11.3,0-3.6-1.1-6.8-3.7-9.1s-7.1-4-14.2-4h-13.2v28.3h9c7.8,0,13.4-1.4,16.9-3.9M155.9,109.8c-3.7-2.6-9.6-4.3-17.9-4.3h-17.7v29.9h18.6c9.3,0,14.8-2.2,18.1-5s4.4-6.5,4.4-10.1c.1-4.2-1.9-8.1-5.4-10.5M181.4,122.5c0-13.8-9.2-24.3-23.8-28.3,4-2,7.1-4.5,9.4-7.5,3.1-4.1,4.5-9,4.5-14.8,0-7.6-3.2-14.8-8.8-19.8-6-5.4-15.1-8.9-27.6-8.9h-34.4v109.5h40.4c14.4,0,24.5-3.9,31-9.7,6.5-5.8,9.3-13.3,9.3-20.3M219.8,173.7H58.4V21.7h161.4v152ZM559.6,123.2l-2.6,1.6c-12.5,7.6-26.1,11.7-38.4,11.7-26.4-.1-43.9-15.8-43.9-38.6,0-22.3,18.2-38.8,43.3-38.9,12.8,0,24.3,3.3,38,10.8l2.5,1.4v-20.4l-1.1-.4c-15.5-6.1-27.5-8.8-39.3-8.8-18.3,0-34.2,6-45.5,16.3s-18,24.7-18,41.4c0,11.6,4.8,25.2,15,35.9,10.2,10.8,25.9,18.6,47.5,18.6h0c17.9,0,30.3-4,41.4-9.5l1-.5v-20.6ZM591.6,173.7h-161.4V21.7h161.4v152Z"></path></svg>