<svg xmlns="http://www.w3.org/2000/svg" id="layer" viewBox="0 0 652 201"><defs><style>      .cls-1 {        fill: #fff;        stroke-width: 0px;      }    </style></defs><path class="cls-1" d="M101,35.9c6.5,1.3,12.9,2.7,18.7,5.9,20.5,11.1,31.8,28.1,31.9,51.4.1,23.4-11,40.9-31.6,51.6-34.8,18.1-77.3-3.9-83.4-42.7-.1-.7-.3-1.4-.5-2.1,0-4.4,0-8.7,0-13.1.1-.5.3-1.1.4-1.6,3.2-19.3,13.5-33.7,30.7-43.1,6.1-3.3,12.8-5,19.6-6.3h14.1ZM71.5,78.1c-1.1-.2-1.4.2-1.8.6-7.2,7.2-11.9,15.6-13.5,25.8-1.1,7.3-.3,14.1,4.7,19.8,4.5,5.3,10,9.4,16.4,12.3,2.4,1.1,4.8,2.1,7.8,2.6-1.5-3.1-2.9-5.7-4.1-8.5-3.5-8.4-2.2-17.8,5.4-24.1,8.7-7.2,13.5-16.6,14-28,0-.6-.2-1.3.6-1.6.6.2.7.7.9,1.1,2.1,5.5,4.4,11,6,16.7,1,3.4,1.4,6.8.6,10.3-1.2,5.1-2.8,10.1-5.6,14.7-.4.6-1.1,1.2-.5,1.9.6.7,1.4.1,2,0,3.1-1,5.9-2.6,8.4-4.8.6-.5,1.2-1.4,2-1.1.8.4.7,1.4.7,2.2,0,6.7-2.2,12.7-5.9,18.2-.5.7-1.2,1.3-1.2,2.5,4.9-1.9,9-4.6,12.7-7.9,7-6.3,11.3-13.9,11.4-23.5.1-10.6-3.8-19.9-9.8-28.4-9.8-13.9-22.7-24.1-37.4-32.3-.6-.3-1.2-1-2-.5-.1.9.3,1.6.5,2.3,1.1,3.3,2.4,6.5,3.4,9.9,2.3,7.6,1.3,14.7-3.7,21.1-3.2,4.1-7,7.6-10.7,11.3-3.4,3.4-5.7,7.4-6.9,12.1-.1.5.1,1.2-.9,1.4-3-9.7,2.2-17.5,6.3-25.6Z"></path><path class="cls-1" d="M447.9,100.8c2.9-7.8,5.4-15,8.1-22.1,2.3-6.1,4.8-12.2,7.2-18.3,1-2.5,2.8-3.7,5.4-3.8,5.9-.3,10.5,4.2,10.9,10.6.7,11.8,3.3,23.4,6,34.8,0,.3.2.6.6,1.4.7-2.5,1.4-4.5,1.9-6.5,3.2-12.1,7.5-23.7,11.5-35.6,1.4-4.2,4.2-5.5,8.4-4.2,4.3,1.4,6.7,5.1,5.4,8.9-1.2,3.6-2.8,7.1-4.2,10.6-6,16-11.3,32.2-14.7,49-.3,1.4-.3,2.9-.3,4.3,0,2.8-1.4,4.4-4.1,4.9-4.9.9-8.1-.7-10.4-5.2-1.7-3.3-2.7-6.9-3.7-10.5-3-10.5-5.7-21.1-8-31.9-.9.5-1,1.3-1.3,2-4,10.1-7.7,20.3-10.8,30.7-1.1,3.6-2.1,7.1-1.2,10.9.4,1.8-.6,3.1-2.3,3.8-3.8,1.6-8.4,0-10.5-3.7-2-3.6-2.9-7.6-3.8-11.5-3.6-15.9-6.2-32-7.6-48.3-.3-3-.5-6-.3-9,.3-5,3.1-6.9,7.9-5.7,4.4,1.1,7,4.3,6.8,8.8-.3,11.3.5,22.5,2.4,33.6,0,.4.2.7.5,1.8Z"></path><path class="cls-1" d="M282.9,106.7c-.8,2.2-.6,4.1-.6,5.9.2,5.9-.2,11.8,1.7,17.5.6,1.7-.6,2.9-1.9,3.8-4.5,2.9-10.4,1-12.3-4-1.1-2.7-1.2-5.5-1.3-8.3-.5-16.9.6-33.8,3.2-50.5.2-1.4,0-2.4-1.3-3.3-4.1-2.9-3.5-8.5,1.1-10.5,2-.9,4-1.5,5.9-2.7,1.7-1.1,3.9-1.1,5.6,0,3,1.9,6.3,1.9,9.5,2.5,6.1,1.1,12.1,2.7,17.2,6.4,9,6.4,9.9,16.9,2.3,24.9-4.2,4.4-9.5,7.2-15.2,9.3-2.1.8-2.5,1.4-1,3.3,5.2,6.8,9.9,14.1,15.8,20.3,1.4,1.5,3,2.6,5,3.4,2.8,1,3.5,3.3,2,6-2,3.6-6.3,5.2-10.3,3.9-2.7-.8-4.9-2.5-6.9-4.5-6.5-6.3-11.8-13.6-16.8-21-.5-.7-1-1.4-1.7-2.5ZM288.6,69c-1.1.2-2.6-.5-2.8,1.2-.7,5.7-1.4,11.4-2,17-.1,1,.4,1.5,1.5,1.3,6.3-1.7,12.5-3.6,17.4-8.2,3.7-3.4,3.2-6.2-1.4-8.4-4-1.9-8.3-2.5-12.6-2.9Z"></path><path class="cls-1" d="M587.9,88.8c2.7-6,5.2-11.8,7.8-17.5,1.8-3.9,3.5-7.8,5.5-11.6,2.9-5.4,10.1-5.9,13.9-1.1,1.7,2.1,1.7,3.9,0,6.7-2,3.2-4.2,6.3-5.9,9.7-5.8,11.9-10.6,24.2-14.9,36.7-4.8,14-9.3,28.1-13.9,42.2-.9,2.6-1.7,5.2-1.8,8,0,2.1-1.4,3.2-3.4,3.6-5.3,1-12.7-2.6-10-10.5,4.7-14.2,9.1-28.5,14.3-42.6.5-1.3.6-2.5.3-3.8-4-14.6-9.1-28.8-15.1-42.8-.4-.9-.9-1.7-1.5-2.5-1.8-2.8-1.4-5.4,1.3-7.4,3.7-2.7,8.5-2.1,11.5,1.6,1.9,2.3,3,5,4.1,7.7,2.7,7,4.9,14.2,7.2,21.4.2.6.4,1.2.7,2.1Z"></path><path class="cls-1" d="M349.4,93.2c4.2-.2,8.5-.3,12.6.9,5.4,1.6,7.1,7.2,3.5,11.5-.9,1.1-2,1.9-3.6,1.5-4.6-1.2-9.3-1.2-14-.7-1.9.2-3.9.1-5.8.2-1,0-2.1.2-2.2,1.4-.3,3.4-.8,6.7-.3,10.2.2,2,1.1,2.8,3.2,2.7,5-.3,10.1-.4,15.1-.5,3.2,0,6.4,0,9.4,1.2,4.9,1.8,6.7,7.2,3.8,11.3-1.1,1.6-2.6,2.7-4.8,2.1-6.5-1.9-13-1.3-19.6-1-4.7.2-9.4.6-14.1,1.1-3.5.4-5.5-1.2-6.2-4.7-1.2-6.2-1-12.4-.6-18.6.2-2.6,0-4.8-1.3-7.2-2.2-3.7-1.8-5.4,1.2-8.3.7-.6.8-1.3.9-2.2.7-8.1,1.6-16.3,2.9-24.3.2-1.5,0-2.8-.6-4.2-1.5-3.7-.4-6.4,3.2-8.2,3.6-1.7,7.5-2.2,11.4-2.4,6.2-.4,12.5-.8,18.7,0,1.7.2,3.4.5,5,1.2,4.6,1.9,6.1,6.7,3.1,10.8-1.2,1.7-2.7,2.6-5,1.8-2.3-.8-4.8-.4-7.2-.5-3.5,0-7,0-10.5.1-3.6.1-4.4.8-4.8,4.4-.8,6.2-1.5,12.4-1.9,18.6-.1,1.9.5,2.4,2.4,2.2,2.1-.2,4.2,0,6.3,0Z"></path><path class="cls-1" d="M519.8,127.5c.2,5.5-1.9,7.9-6.2,7.3-3.9-.5-6.4-3.3-6.6-7.2-.1-3.9,1-7.5,2.1-11.2,5.4-17.4,10.7-34.8,17.4-51.8.7-1.9,1.6-3.7,2.6-5.5,1.9-3.5,4.9-4.9,8.4-4.3,3.5.6,6.2,3.3,6.7,7.1.6,4,1,8,1.6,12,1.3,9.2,3.5,18.3,5.4,27.3.3,1.2,1,1.9,2.2,2.2,1.5.3,3,.9,4.2,1.8,3.9,2.9,3.3,9.1-1.1,10.9-1.3.5-.9,1.2-.7,2.1.9,3.1,2.2,5.9,3.8,8.7,1.2,2,1.7,4.1,0,6.1-1.8,2-4,3-6.7,2.4-3.4-.8-5.5-3-6.8-6.1-1.6-3.7-2.7-7.5-3.6-11.3-.4-1.6-1.1-2.2-2.8-2.2-5,0-9.9.3-14.8.8-2.3.2-3.4,1.5-4,3.6-.7,2.4-1.1,4.9-1,7.4ZM533.5,82.1c-2.8,7-4.9,13.6-6.9,20.1-.3,1.1,0,1.6,1.1,1.5,3-.2,6-.5,8.9-.8,1.1,0,1.6-.5,1.3-1.7-1.4-6.1-2.9-12.2-4.4-19.1Z"></path><path class="cls-1" d="M387.9,126.8c0,.5,0,1,0,1.5.5,2.6,0,4.7-2.5,5.9-2.7,1.2-5.3.9-7.5-.9-2.8-2.2-3.2-5.3-2.6-8.6,1.4-7.9,4.2-15.4,6.6-23.1,4-12.8,8.2-25.6,13.2-38.1.8-1.9,1.6-3.7,2.8-5.4,1.9-2.8,4.6-3.8,7.8-3.2,3.2.6,5.4,2.5,6.3,5.7,1.2,4.1,1.2,8.5,1.8,12.7,1.4,9.4,3.6,18.7,5.6,28.1.4,1.8,1.7,1.9,3,2.3,5.3,1.6,7.5,5.8,5.3,10.2-.5,1-1.2,2.1-2.4,2.2-1.6.2-1.5,1-1.2,2.2.9,2.9,2,5.8,3.7,8.4,1.2,2,1.8,4,.2,6.1-1.5,2-4.4,3.1-6.9,2.5-3.2-.8-5.2-2.8-6.5-5.7-1.6-3.6-2.8-7.4-3.7-11.3-.5-2.1-1.5-2.7-3.5-2.6-4.8,0-9.6.4-14.3.8-2.2.2-3.3,1.4-3.9,3.4-.7,2.3-1.2,4.5-1.1,6.9ZM401.7,82.1c-2.8,6.9-4.9,13.5-6.9,20.1-.2.8-.4,1.6.8,1.5,3.1-.2,6.1-.5,9.2-.7,1.3-.1,1.6-.8,1.3-2-1.4-6.1-2.9-12.2-4.4-18.8Z"></path><path class="cls-1" d="M219.2,54.8c4.5,0,8.9-.4,13.3,1.1,4.9,1.7,6.5,6.6,3.6,10.7-1.3,1.8-2.8,2.5-5.2,2.1-6.6-1.2-13.2-.7-19.8,0-1.3.2-2.1,1-2.4,2.4-1,5.7-1.3,11.6-1.8,17.3-.2,1.8.9,1.6,2.2,1.5,5.6-.4,11.2-.6,16.7.2,3.2.5,6.2,1.4,7.4,5,.8,2.5.3,4.8-1.3,6.8-1.1,1.5-2.5,1.9-4.5,1.5-6.8-1.2-13.6-.6-20.3,0-1.1.1-1.2.9-1.2,1.8-.6,6.5-.5,13.1-.4,19.6,0,1.5.5,2.9,1.1,4.2.9,2.2.1,3.8-1.8,4.9-5.1,2.8-11.4.2-12.7-5.4-1-4.4-1-8.8-.8-13.3,0-2.3.2-4.5.3-6.8.1-2.9,0-5.7-1.4-8.4-1.6-2.9-.9-5,1.5-7.1,1.1-.9,1.2-2.1,1.3-3.3.4-7,1.5-14,2.3-20.9.1-1.1-.3-2.1-.6-3-1.5-4.1-.4-6.7,3.6-8.4,4.5-2,9.5-2.1,14.3-2.5,2.3-.2,4.5,0,6.8,0Z"></path><path class="cls-1" d="M243.1,118.1c.3-12,1.1-24.1,2.3-36,.5-5.1,1.1-10.1,1.5-15.2.2-2.3.2-4.7-.2-7-.5-2.5.6-4.2,3.1-5,3.7-1.2,7.1-.4,10,2.2,1.5,1.3,2.3,3.1,1.9,5.2-2.6,17.5-4.1,35-4.4,52.6,0,2.7-.2,5.5-.3,8.2,0,1.6.3,3.2.8,4.8,1.3,3.8.3,5.8-3.6,6.8-5.1,1.4-9.7-1.6-10.6-6.9-.5-3.2-.5-6.4-.5-9.7Z"></path></svg>