<svg xmlns="http://www.w3.org/2000/svg" id="layer" viewBox="0 0 652 201"><defs><style>      .st0 {        fill: #fff;      }    </style></defs><path id="path4" class="st0" d="M116.75,23.51h42.6v19.5h.6c5.9-11.2,20.4-23.1,42-23.1,45,0,53.2,29.6,53.2,68v79.2h-44.4v-70.4c0-16.6-.3-37.9-23.1-37.9s-26.6,18-26.6,36.7v71.5h-44.3V23.51Z"></path><path id="path6" class="st0" d="M377.35,79.11c.3-14.8-11.2-27.2-27.2-27.2-19.5,0-30.2,13.3-31.4,27.2h58.6ZM414.95,142.31c-14.2,18-37.6,28.4-60.7,28.4-44.4,0-79.9-29.6-79.9-75.4s35.5-75.4,79.9-75.4c41.4,0,67.4,29.6,67.4,75.4v13.9h-102.9c3.5,16.9,16.3,27.8,33.4,27.8,14.5,0,24.3-7.4,31.6-17.5l31.2,22.8Z"></path><path id="path8" class="st0" d="M540.95,69.91c-4.4-6.2-12.7-10.9-21.9-10.9-22.2,0-35.5,14.8-35.5,36.4s13.3,36.4,35.5,36.4c9.8,0,16.9-5,21.9-11l29.3,30.7c-13.9,14.2-34.3,19.2-51.2,19.2-44.4,0-79.9-29.6-79.9-75.4s35.5-75.4,79.9-75.4c16.9,0,37.3,5,51.2,19.2l-29.3,30.8Z"></path></svg>