<svg xmlns="http://www.w3.org/2000/svg" id="layer" viewBox="0 0 652 201"><defs><style>      .cls-1 {        fill: #fff;        stroke-width: 0px;      }    </style></defs><g id="Page-1"><g id="news-uk"><path id="Shape" class="cls-1" d="M522.1,111.7c0,5.9-.1,12.7-2.6,18.2-4.6,10.1-14.9,14.6-25.5,14.6s-18.4-3.4-23.6-11.1c-4.3-6.4-4.4-14.2-4.4-21.7v-58.2h-9v61.3c0,23.7,13.3,37.1,37.2,37.1s37.1-14.1,37.1-37.1v-61.3h-9.1v58.2h-.1Z"></path><polygon id="Shape-2" data-name="Shape" class="cls-1" points="579.4 97.3 623.8 53.5 612.1 53.5 569 97.9 616.4 150.5 628.4 150.5 579.4 97.3"></polygon><rect id="Rectangle-path" class="cls-1" x="559.7" y="53.5" width="8.7" height="96.9"></rect><path id="Shape-3" data-name="Shape" class="cls-1" d="M386,83.5c-9.8.7-21.7,4-26.1,13.9-3.7,8.1-.8,16.8,6.9,26.4,4.9,6,9.4,11.7,10.7,13.1-3.5.7-11.2.5-18.9-.9h-.1c-1.8-.3-3.5-.7-5.2-1.2-4.4-1.4-5.6-3.1-5.6-3.1l-.6.5h0l.6-.4c-2.9.4-5.4,2.5-7.1,4.7-1.7,2.3-3.5,6.6-2,8.8,1.3,1.8,3.9,2.8,8.8,2.9,10.9.5,31.2,3.4,35.4,3.9,5.8.6,9.7-4.2,10.9-6.9,1.5-3.7,0-7.8-2-10-9.7-11.2-23.2-23.4-18.3-33.6,2.2-4.7,13.1-3.8,16.7-2.7,7.7,2.3,11.5-.5,13.2-5.6,1-3.4-1-11-17.3-9.8"></path><path id="Shape-4" data-name="Shape" class="cls-1" d="M168.7,38.2c1-2.7.1-6-1.6-7.3-5.6-4.2-10.7-1.9-14.5,2.3-4.5,4.9-10.3,15.5-12.7,19.5-22.5,36.4-39.7,75.3-39.7,75.3,0,0-6-18.1-6.8-32.5-.8-13.6-1.4-26.5-2-32.9-.2-2.5-1.3-6.5-5.7-8-3.4-1.1-8.4-1.6-11.9-.3-.3,4.4-.5,6.4-2.3,11.6-1.8,5.1-13.4,27.7-15.4,31.3-10.1,18-23.4,40.4-24.2,41.8-2.7,5-6.5,11.9,0,14.3s12.1,1.1,14.9-3c.5-.8,1.3-2.3,1.3-2.3,0,0-1.9-1.5,2.2-10.9,1.2-2.5,2.6-5.4,4.2-8.6.3-.6.6-1.2,1-1.8.4-.7.8-1.5,1.1-2.3,6.6-13.1,15.5-30,23.4-44.8,0,9.1.6,18.1,1.9,27.1,1.8,15.1,5.5,21.5,6.9,33.6-.3,8.1.5,9.6,6.5,11.2,5.5,1.5,8.8,0,10.9-5.1,8-20.3,31.1-66.8,50.7-92,1.8-2.7,9.6-10.3,11.8-16.2"></path><path id="Shape-5" data-name="Shape" class="cls-1" d="M351.1,122c3.9-2.2,5.4-6.6,2.3-10.3s-9.2-3.4-11.9-1.7c-2.3,1.4-4.9,2.8-12.8,3.2-7.4.4-10.4-2.8-15-2.8s-7.3,3.7-13.8,11.7c-3.3,4.1-10.7,14.1-14.1,14.1s-4-8.1-4-18.9-2.2-8.9-7.7-8.5c-4.6.3-5.4,6.3-7.8,9.2-7.2,8.4-13.1,16.7-16,16.7s-5.1-8.1-5.1-14.2c0,0,1.1-9.7-7.7-11.4-3.8-.7-7.8,1.4-7.8,1.4.3.7.5,1.5.4,2.3-1.1,4.1-8.8,9.9-8.8,9.9-8.2,6-24.5,17-39.3,17.8-17.2.9-20.2-9.1-20.8-13.1,14.8-5.4,24.7-11.7,31.1-16.6,6.8-5.3,11.3-11.1,10.9-16.8-.5-7.7-7.5-10.5-13.1-10.5-12,0-31.8,5.2-41.4,31.4-2.1.7-6.9.7-9.5,0-3.5-.9-3.4-2.4-3.4-2.4-3.2.8-4.6,2.4-5.8,5.2-1.8,4.5.6,8.4,4.3,10.4,2.7,1.5,6.9,2.4,12.9,1.7.8,8,6.1,23.5,34.3,22.3,22.4-.9,48.6-19.8,50.9-21.2,1,4.6,4.1,21.2,13.7,21.2s23.2-17.7,23.2-17.7c0,0,3,17.7,14.5,17.7s21.6-15.4,24.6-19c2.5-3,7.3-8.6,10-8.6,2.6-.5,7.7,4,22.4,1,.4-.2,7.1-1.7,10.3-3.5M187.1,96.3c1.4,1.4-1.6,4.5-4.1,6.1-7.1,4.6-14.2,7.3-19.3,9.1,5.5-11.2,21.5-17.9,23.4-15.2"></path></g></g></svg>