<svg xmlns="http://www.w3.org/2000/svg" id="layer" viewBox="0 0 652 201"><defs><style>      .cls-1 {        fill: #fff;        stroke-width: 0px;      }    </style></defs><path class="cls-1" d="M137.9,24.4v152.2h376.1V24.4H137.9ZM222.5,161.6l-25.6-84.8h-.3l-17,84.8h-30.9l26.2-122.5h0s40.9,0,40.9,0l25.1,85h.3l17.2-85h30.9l-26,122.5h-40.7ZM347.4,161.6l10.9-52.5h-38.8l-10.9,52.5h-32.8l25.5-122.5h0,0s0,0,0,0h32.8l-9.6,46.9h38.8l9.7-46.9h32.8l-25.5,122.5h-32.8ZM492.1,66.8h0c-6.3-3-14.9-5.6-27-5.6s-23.5,1.9-23.5,11.8c0,17.4,47.6,10.9,47.6,48.1s-31.4,42.7-59.9,42.7-27.2-3-37.9-6.3l7.7-24.9c6.5,4.2,19.5,7,30.2,7s26.2-1.9,26.2-14.6c0-19.7-47.6-12.3-47.6-46.9s27.7-41.1,54.6-41.1,29.3,1.6,37.6,5.4l-7.9,24.4h0Z"></path><polygon class="cls-1" points="301.3 39.1 301.3 39.1 301.3 39.1 301.3 39.1"></polygon></svg>