<?xml version="1.0" encoding="UTF-8"?>
<svg xmlns="http://www.w3.org/2000/svg" xmlns:xlink="http://www.w3.org/1999/xlink" width="435.798" height="340.165" viewBox="0 0 435.798 340.165">
<defs>
<clipPath id="clip-0">
<path clip-rule="nonzero" d="M 0 0 L 435.796875 0 L 435.796875 340.164062 L 0 340.164062 Z M 0 0 "/>
</clipPath>
<clipPath id="clip-1">
<path clip-rule="nonzero" d="M 60 0 L 421 0 L 421 340.164062 L 60 340.164062 Z M 60 0 "/>
</clipPath>
</defs>
<g clip-path="url(#clip-0)">
<path fill-rule="evenodd" fill="rgb(0%, 0%, 0%)" fill-opacity="1" d="M 397.839844 340.164062 L 324.839844 340.164062 L 324.839844 321.414062 C 324.839844 321.414062 336.632812 315.929688 334.925781 304.550781 C 333.273438 293.167969 320.59375 282.613281 317.234375 253.957031 C 313.875 225.300781 311.75 213.269531 296.597656 200.417969 C 281.441406 187.5625 275.132812 180.839844 275.132812 180.839844 C 275.132812 180.839844 279.082031 195.167969 287.515625 201.066406 C 295.949219 206.960938 300.605469 211.796875 294.710938 216.867188 C 288.8125 221.9375 258.679688 220.230469 258.679688 220.230469 C 258.679688 220.230469 206.320312 251.539062 176.367188 247.707031 C 146.46875 243.933594 128.957031 223.472656 128.957031 223.472656 C 128.957031 223.472656 141.164062 243.757812 160.148438 251.539062 C 179.136719 259.324219 203.960938 253.839844 203.960938 253.839844 C 203.960938 253.839844 202.3125 300.007812 208.621094 308.441406 C 214.929688 316.871094 220.824219 319.171875 221.296875 322.945312 C 221.59375 325.894531 222.183594 335.683594 222.417969 340.164062 L 154.605469 340.164062 C 154.429688 333.148438 153.25 313.277344 146.648438 292.636719 C 138.453125 266.929688 123.0625 252.363281 123.0625 252.363281 C 123.0625 252.363281 118.402344 262.269531 117.398438 268.816406 C 116.339844 275.363281 99.238281 275.773438 86.796875 289.042969 C 74.414062 302.308594 72.054688 309.03125 72.054688 309.03125 C 72.054688 309.03125 88.09375 320.527344 88.09375 330.316406 C 88.09375 333.5 87.742188 336.921875 87.269531 340.164062 L 16.804688 340.164062 L 0 315.457031 C 0 315.457031 15.804688 253.957031 19.578125 250.183594 C 23.351562 246.351562 50.769531 237.507812 51.183594 229.488281 C 51.59375 221.46875 59.378906 161.203125 93.519531 127.949219 C 127.660156 94.632812 150.832031 99.289062 177.015625 102.652344 C 190.8125 104.421875 200.777344 105.246094 210.09375 101.710938 C 207.441406 114.800781 208.441406 130.011719 208.441406 130.011719 C 208.441406 130.011719 209.210938 123.585938 212.804688 113.617188 C 216.34375 103.773438 232.265625 83.664062 232.796875 83.015625 C 233.679688 81.894531 234.625 80.71875 235.566406 79.476562 C 255.792969 52.886719 291.644531 54.183594 301.3125 42.800781 C 311.042969 31.421875 333.566406 -3.132812 357.15625 0.230469 C 380.800781 3.589844 395.304688 15.617188 395.953125 19.394531 C 396.601562 23.164062 396.601562 29.300781 396.601562 29.300781 C 396.601562 29.300781 420.835938 53.535156 420.835938 65.5625 C 420.835938 77.59375 411.519531 77.121094 411.519531 77.121094 C 411.519531 77.121094 421.425781 83.253906 425.4375 96.105469 C 429.445312 108.960938 436.402344 111.910156 435.753906 115.917969 C 435.164062 119.929688 420.835938 132.546875 413.878906 145.816406 C 406.921875 159.140625 394.480469 152.242188 390.707031 146.050781 C 386.871094 139.859375 384.277344 122.109375 384.277344 122.109375 C 384.277344 122.109375 384.691406 158.492188 383.394531 171.523438 C 382.15625 184.613281 406.625 225.714844 410.398438 250.597656 C 414.175781 275.421875 408.101562 287.273438 408.101562 287.273438 C 408.101562 287.273438 411.226562 312.097656 406.15625 319.054688 C 401.140625 326.011719 397.839844 340.164062 397.839844 340.164062 M 373.132812 166.6875 C 378.851562 121.460938 374.253906 47.164062 311.160156 55.65625 C 300.191406 57.128906 286.925781 60.902344 286.925781 60.902344 C 286.925781 60.902344 333.921875 51.410156 347.425781 71.871094 C 360.871094 92.332031 356.445312 106.660156 356.445312 106.660156 C 356.445312 106.660156 367 101.175781 373.132812 166.6875 M 288.695312 340.164062 L 239.8125 340.164062 C 239.8125 340.164062 238.101562 330.964844 232.441406 322.945312 C 226.722656 314.988281 241.699219 308.203125 243.175781 297.238281 C 244.648438 286.328125 235.390625 245.820312 235.390625 245.820312 C 235.390625 245.820312 256.558594 235.914062 261.097656 233.613281 C 265.640625 231.316406 271.125 229.074219 271.125 229.074219 C 271.125 229.074219 277.316406 229.488281 284.921875 228.367188 C 292.527344 227.1875 297.246094 225.59375 297.246094 225.59375 C 297.246094 225.59375 310.511719 256.671875 310.101562 281.554688 C 309.6875 306.4375 288.695312 340.164062 288.695312 340.164062 "/>
</g>
<g clip-path="url(#clip-1)">
<path fill-rule="evenodd" fill="rgb(21.960449%, 21.960449%, 21.960449%)" fill-opacity="1" d="M 289.167969 49.820312 C 289.167969 49.820312 305.855469 47.222656 320.832031 35.371094 C 335.808594 23.519531 353.320312 28.53125 353.320312 28.53125 C 353.320312 28.53125 359.570312 6.300781 373.605469 11.019531 C 378.5 12.613281 383.214844 15.617188 383.335938 19.273438 C 383.453125 26.171875 374.84375 34.605469 374.84375 34.605469 C 374.84375 34.605469 405.742188 37.789062 420.835938 65.5625 C 420.835938 53.535156 396.601562 29.296875 396.601562 29.296875 C 396.601562 29.296875 396.601562 23.167969 395.953125 19.394531 C 395.304688 15.617188 380.800781 3.589844 357.152344 0.230469 C 333.566406 -3.132812 311.042969 31.421875 301.3125 42.800781 C 298.777344 45.75 294.472656 47.871094 289.167969 49.820312 M 128.957031 223.472656 C 128.957031 223.472656 152.367188 240.21875 177.957031 235.5625 C 203.546875 230.84375 217.464844 213.980469 217.464844 213.980469 C 217.464844 213.980469 221.0625 220.109375 240.875 215.570312 C 260.6875 211.03125 263.695312 209.027344 263.695312 209.027344 C 263.695312 209.027344 294.355469 215.160156 295.476562 207.789062 C 298.011719 210.914062 298.1875 213.859375 294.710938 216.867188 C 288.8125 221.9375 258.679688 220.230469 258.679688 220.230469 C 258.679688 220.230469 206.320312 251.539062 176.367188 247.707031 C 147.414062 244.050781 130.078125 224.769531 129.015625 223.53125 L 128.957031 223.53125 Z M 60.851562 184.613281 C 69.875 170.992188 82.847656 156.191406 99.769531 148.585938 C 136.035156 132.3125 165.339844 142.335938 165.339844 142.335938 C 165.339844 142.335938 148.652344 132.195312 139.277344 129.65625 C 129.902344 127.183594 116.988281 127.652344 116.988281 127.652344 C 124.121094 104.242188 175.007812 109.253906 199.007812 104.066406 C 192.640625 104.480469 185.566406 103.773438 177.015625 102.652344 C 150.832031 99.289062 127.660156 94.632812 93.519531 127.949219 C 77.480469 143.632812 67.21875 165.273438 60.851562 184.613281 M 384.21875 178.363281 C 384.21875 178.363281 389.644531 201.183594 390.882812 221.820312 C 392.121094 242.398438 385.574219 266.164062 385.574219 266.164062 C 385.574219 266.164062 404.03125 259.265625 403.085938 272.414062 C 402.144531 285.503906 391.53125 286.449219 391.53125 302.074219 C 391.53125 311.683594 389.410156 328.546875 387.757812 340.164062 L 397.839844 340.164062 C 397.839844 340.164062 401.144531 326.011719 406.15625 319.054688 C 411.226562 312.097656 408.097656 287.273438 408.097656 287.273438 C 408.097656 287.273438 414.171875 275.421875 410.398438 250.597656 C 407.097656 229.132812 388.464844 195.523438 384.21875 178.363281 "/>
</g>
</svg>
